# xmcd
#
# Track frame offsets:
#	150
#	13199
#	24496
#	36128
#	47727
#	59181
#	72788
#	85208
#	97260
#	109907
#	121367
#	133330
#	147729
#	160190
#	172780
#	185065
#	196803
#	207183
#	219628
#	229832
#	241701
#	254060
#	266145
#	278494
#	286998
#	300070
#	313793
#	326689
#	338268
#
# Disc length: 4651 seconds
#
# Revision: 0
# Processed by: cddbd v1.5.1PL0 Copyright (c) Steve Scherf et al.
# Submitted via: EasyCDDAExtractor 4.6.9.1
#
DISCID=b412291d
DTITLE=Ernest Tubb - The Yellow Rose Of Texas - Disc 4
DYEAR=1993
DGENRE=Country
TTITLE0=Blue Christmas
TTITLE1=Don't Rob Another Man's Castle
TTITLE2=What I Know About Her
TTITLE3=I Cried A Tear
TTITLE4=Let's Say Goodbye Like We Said Hello
TTITLE5=Driftwood On The River
TTITLE6=I Wonder Why You Said Goodbye
TTITLE7=Tomorrow Never Comes
TTITLE8=Filipino Baby
TTITLE9=I'd Rather Be
TTITLE10=Letter Have No Arms
TTITLE11=Rainbow At Midnight
TTITLE12=Have You Ever Been Lonely
TTITLE13=I Will Miss You When You Go
TTITLE14=I'd Rather Be
TTITLE15=Live It Up
TTITLE16=(I've Lost You) So Why Should I Care
TTITLE17=Accidently On Purpose
TTITLE18=Do It Now
TTITLE19=He'll Have To Go
TTITLE20=Mister Blues
TTITLE21=The Kind Of Love She Gave To Me
TTITLE22=Pick Me Up On Your Way Down
TTITLE23=This Ain't The Blues
TTITLE24=You Win Again
TTITLE25=I Believe I'm Entitled To You
TTITLE26=A Guy Named Joe
TTITLE27=Who Will Buy The Wine
TTITLE28=Why I'm Walkin'
EXTD=
EXTT0=
EXTT1=
EXTT2=
EXTT3=
EXTT4=
EXTT5=
EXTT6=
EXTT7=
EXTT8=
EXTT9=
EXTT10=
EXTT11=
EXTT12=
EXTT13=
EXTT14=
EXTT15=
EXTT16=
EXTT17=
EXTT18=
EXTT19=
EXTT20=
EXTT21=
EXTT22=
EXTT23=
EXTT24=
EXTT25=
EXTT26=
EXTT27=
EXTT28=
PLAYORDER=
